<?xml version="1.0" standalone="no"?>
<!DOCTYPE svg PUBLIC "-//W3C//DTD SVG 20010904//EN"
 "http://www.w3.org/TR/2001/REC-SVG-20010904/DTD/svg10.dtd">
<svg version="1.0" xmlns="http://www.w3.org/2000/svg"
 width="500.000000pt" height="500.000000pt" viewBox="0 0 500.000000 500.000000"
 preserveAspectRatio="xMidYMid meet">
<metadata>
Created by potrace 1.16, written by Peter Selinger 2001-2019
</metadata>
<g transform="translate(0.000000,500.000000) scale(0.100000,-0.100000)"
fill="#000000" stroke="none">
<path d="M1960 4149 c-101 -56 -168 -141 -211 -268 -34 -98 -21 -239 31 -342
49 -95 120 -173 323 -353 48 -43 100 -99 114 -124 24 -40 27 -56 26 -129 0
-46 3 -83 6 -83 28 0 50 159 32 226 -16 58 -81 146 -205 275 -132 138 -188
215 -221 303 -68 181 4 391 175 508 46 31 -9 21 -70 -13z"/>
<path d="M2128 3993 c-42 -49 -48 -162 -13 -238 32 -68 113 -172 265 -338 52
-57 110 -144 144 -217 29 -60 31 -73 31 -170 0 -118 -10 -146 -74 -213 -47
-50 -143 -94 -244 -113 -27 -4 -35 -9 -25 -15 27 -18 110 -9 223 24 112 32
197 128 224 255 16 76 14 128 -10 212 -40 146 -103 234 -322 445 -93 90 -163
167 -176 192 -23 47 -27 103 -10 152 13 38 8 48 -13 24z"/>
<path d="M3025 2900 c3 -5 13 -10 20 -10 17 0 72 -30 132 -71 60 -41 83 -78
83 -132 0 -40 -5 -51 -40 -86 -104 -105 -312 -176 -630 -216 -137 -18 -555
-20 -680 -4 -323 40 -571 124 -655 221 -35 41 -37 46 -32 101 3 31 3 57 0 57
-6 0 -44 -46 -60 -74 -28 -48 -8 -340 37 -523 64 -265 229 -554 400 -701 50
-43 59 -32 15 18 -41 45 -136 199 -174 283 -67 143 -115 302 -140 457 -15 95
-29 214 -25 219 2 2 35 -10 73 -28 327 -150 988 -206 1461 -122 190 34 358 79
432 117 15 8 31 14 36 14 19 0 -54 -326 -80 -355 -4 -5 -8 -15 -8 -23 0 -20
-88 -200 -123 -252 -69 -102 -138 -188 -193 -241 -55 -52 -181 -148 -232 -177
-162 -92 -307 -131 -482 -132 -112 0 -208 19 -335 65 -18 7 -19 6 -5 -9 20
-20 163 -80 232 -96 29 -7 66 -16 82 -21 16 -5 89 -9 163 -9 103 0 154 5 221
21 326 81 592 312 769 671 24 48 43 90 43 94 0 3 7 20 15 37 16 37 57 181 80
283 26 116 91 165 197 151 83 -11 117 -86 93 -210 -25 -130 -125 -295 -274
-450 -46 -48 -78 -87 -70 -87 8 0 44 20 81 45 230 154 399 420 401 628 0 75
-15 119 -57 165 -54 61 -174 86 -276 58 -30 -8 -56 -14 -56 -13 -1 1 -4 25 -7
53 -6 65 -15 80 -71 132 -53 48 -152 100 -266 136 -86 28 -104 31 -95 16z"/>
<path d="M3125 1239 c110 -55 134 -113 73 -170 -65 -59 -181 -101 -420 -149
-266 -53 -903 -64 -1193 -20 -33 5 -77 11 -97 14 -21 3 -56 10 -78 15 -51 11
-63 -5 -13 -18 231 -61 488 -86 868 -86 486 0 830 50 1025 150 111 57 134 124
64 186 -45 40 -218 109 -271 109 -10 0 9 -14 42 -31z"/>
</g>
</svg>
